<svg width="200" height="200" viewBox="0 0 200 200" xmlns="http://www.w3.org/2000/svg">
  <defs>
    <linearGradient id="bgGradient" x1="0%" y1="0%" x2="100%" y2="100%">
      <stop offset="0%" style="stop-color:#2563eb;stop-opacity:1" />
      <stop offset="100%" style="stop-color:#7c3aed;stop-opacity:1" />
    </linearGradient>
    <linearGradient id="ringGradient" x1="0%" y1="0%" x2="100%" y2="100%">
      <stop offset="0%" style="stop-color:#60a5fa;stop-opacity:1" />
      <stop offset="50%" style="stop-color:#8b5cf6;stop-opacity:1" />
      <stop offset="100%" style="stop-color:#34d399;stop-opacity:1" />
    </linearGradient>
    <linearGradient id="connectionsGradient" x1="0%" y1="0%" x2="100%" y2="0%">
      <stop offset="0%" style="stop-color:#60a5fa;stop-opacity:0.8" />
      <stop offset="100%" style="stop-color:#34d399;stop-opacity:0.8" />
    </linearGradient>
    <filter id="glow" x="-20%" y="-20%" width="140%" height="140%">
      <feGaussianBlur stdDeviation="3" result="blur" />
      <feComposite in="SourceGraphic" in2="blur" operator="over" />
    </filter>
    <filter id="shadow" x="-10%" y="-10%" width="120%" height="120%">
      <feDropShadow dx="0" dy="2" stdDeviation="2" flood-color="#000" flood-opacity="0.3" />
    </filter>
    <clipPath id="circleMask">
      <circle cx="100" cy="100" r="80" />
    </clipPath>
  </defs>

  <!-- Background circle -->
  <circle cx="100" cy="100" r="90" fill="url(#bgGradient)" filter="url(#shadow)" />
  
  <!-- Outer ring -->
  <circle cx="100" cy="100" r="85" fill="none" stroke="url(#ringGradient)" stroke-width="3" stroke-dasharray="4,2" filter="url(#glow)" />
  
  <!-- Star shape in the center representing competition -->
  <polygon points="100,40 115,75 155,75 125,100 140,140 100,115 60,140 75,100 45,75 85,75" 
           fill="rgba(255,255,255,0.1)" stroke="white" stroke-width="1.5" />
  
  <!-- Connecting nodes representing different models -->
  <g filter="url(#glow)">
    <!-- Model nodes -->
    <circle cx="100" cy="70" r="12" fill="#60a5fa" />
    <circle cx="65" cy="105" r="12" fill="#8b5cf6" />
    <circle cx="135" cy="105" r="12" fill="#34d399" />
    <circle cx="90" cy="140" r="10" fill="#f472b6" />
    <circle cx="110" cy="140" r="10" fill="#fbbf24" />
    
    <!-- Connection lines -->
    <line x1="100" y1="70" x2="65" y2="105" stroke="url(#connectionsGradient)" stroke-width="2.5" />
    <line x1="100" y1="70" x2="135" y2="105" stroke="url(#connectionsGradient)" stroke-width="2.5" />
    <line x1="65" y1="105" x2="90" y2="140" stroke="url(#connectionsGradient)" stroke-width="2.5" />
    <line x1="135" y1="105" x2="110" y2="140" stroke="url(#connectionsGradient)" stroke-width="2.5" />
    <line x1="65" y1="105" x2="135" y2="105" stroke="url(#connectionsGradient)" stroke-width="2.5" />
    <line x1="90" y1="140" x2="110" y2="140" stroke="url(#connectionsGradient)" stroke-width="2.5" />
  </g>
  
  <!-- Dynamic "pulse" circles -->
  <circle cx="100" cy="100" r="75" fill="none" stroke="rgba(255,255,255,0.3)" stroke-width="0.5">
    <animate attributeName="r" from="70" to="80" dur="3s" repeatCount="indefinite" />
    <animate attributeName="opacity" from="0.6" to="0" dur="3s" repeatCount="indefinite" />
  </circle>
  
  <!-- Central node -->
  <circle cx="100" cy="100" r="18" fill="white" opacity="0.9" />
  <circle cx="100" cy="100" r="16" fill="url(#bgGradient)" />
  <text x="100" y="105" font-family="Arial, sans-serif" font-size="14" font-weight="bold" text-anchor="middle" fill="white">MA</text>
  
  <!-- Text at bottom -->
  <text x="100" y="180" font-family="Arial, sans-serif" font-size="14" font-weight="bold" text-anchor="middle" fill="white" filter="url(#glow)">MODEL ARENA</text>
</svg>